<mxfile host="app.diagrams.net" modified="2022-08-13T23:59:59.710Z" agent="5.0 (Windows NT 10.0; Win64; x64) AppleWebKit/537.36 (KHTML, like Gecko) Chrome/104.0.0.0 Safari/537.36" etag="J_RnSO0egiJkxi-AvnYm" version="20.2.3" type="github" pages="3">
  <diagram name="Home" id="03018318-947c-dd8e-b7a3-06fadd420f32">
    <mxGraphModel dx="1038" dy="579" grid="1" gridSize="10" guides="1" tooltips="1" connect="1" arrows="1" fold="1" page="1" pageScale="1" pageWidth="1100" pageHeight="850" background="#ffffff" math="0" shadow="0">
      <root>
        <mxCell id="0" />
        <mxCell id="1" parent="0" />
        <mxCell id="677b7b8949515195-1" value="" style="whiteSpace=wrap;html=1;rounded=0;shadow=0;labelBackgroundColor=none;strokeColor=#23445d;strokeWidth=1;fillColor=#bac8d3;fontFamily=Verdana;fontSize=12;align=center;comic=1;" parent="1" vertex="1">
          <mxGeometry x="20" y="20" width="1060" height="810" as="geometry" />
        </mxCell>
        <mxCell id="677b7b8949515195-2" value="LOGO" style="whiteSpace=wrap;html=1;rounded=0;shadow=0;labelBackgroundColor=none;strokeWidth=1;fontFamily=Verdana;fontSize=28;align=center;comic=1;" parent="1" vertex="1">
          <mxGeometry x="60" y="60" width="190" height="50" as="geometry" />
        </mxCell>
        <mxCell id="677b7b8949515195-3" value="Search" style="strokeWidth=1;shadow=0;dashed=0;align=center;html=1;shape=mxgraph.mockup.forms.searchBox;strokeColor=#999999;mainText=;strokeColor2=#008cff;fontColor=#666666;fontSize=17;align=left;spacingLeft=3;rounded=0;labelBackgroundColor=none;comic=1;" parent="1" vertex="1">
          <mxGeometry x="750" y="90" width="220" height="30" as="geometry" />
        </mxCell>
        <mxCell id="677b7b8949515195-4" value="Información" style="text;html=1;points=[];align=left;verticalAlign=top;spacingTop=-4;fontSize=14;fontFamily=Verdana" parent="1" vertex="1">
          <mxGeometry x="750" y="40" width="60" height="20" as="geometry" />
        </mxCell>
        <mxCell id="677b7b8949515195-6" value="Registrate" style="text;html=1;points=[];align=left;verticalAlign=top;spacingTop=-4;fontSize=14;fontFamily=Verdana" parent="1" vertex="1">
          <mxGeometry x="880" y="40" width="60" height="20" as="geometry" />
        </mxCell>
        <mxCell id="677b7b8949515195-7" value="Log in" style="text;html=1;points=[];align=left;verticalAlign=top;spacingTop=-4;fontSize=14;fontFamily=Verdana" parent="1" vertex="1">
          <mxGeometry x="1000" y="40" width="60" height="20" as="geometry" />
        </mxCell>
        <mxCell id="677b7b8949515195-9" value="" style="line;strokeWidth=1;html=1;rounded=0;shadow=0;labelBackgroundColor=none;fillColor=none;fontFamily=Verdana;fontSize=14;fontColor=#000000;align=center;comic=1;" parent="1" vertex="1">
          <mxGeometry x="20" y="140" width="1060" height="10" as="geometry" />
        </mxCell>
        <mxCell id="677b7b8949515195-10" value="" style="whiteSpace=wrap;html=1;rounded=0;shadow=0;labelBackgroundColor=none;strokeWidth=1;fillColor=#000000;fontFamily=Verdana;fontSize=12;align=center;comic=1;" parent="1" vertex="1">
          <mxGeometry x="30" y="160" width="1040" height="50" as="geometry" />
        </mxCell>
        <mxCell id="677b7b8949515195-11" value="Home" style="text;html=1;points=[];align=left;verticalAlign=top;spacingTop=-4;fontSize=14;fontFamily=Verdana;fontColor=#FFFFFF;" parent="1" vertex="1">
          <mxGeometry x="40" y="174" width="60" height="20" as="geometry" />
        </mxCell>
        <mxCell id="677b7b8949515195-12" value="Accesorios" style="text;html=1;points=[];align=left;verticalAlign=top;spacingTop=-4;fontSize=14;fontFamily=Verdana;fontColor=#FFFFFF;" parent="1" vertex="1">
          <mxGeometry x="100" y="172.5" width="80" height="25" as="geometry" />
        </mxCell>
        <mxCell id="677b7b8949515195-13" value="Cascos" style="text;html=1;points=[];align=left;verticalAlign=top;spacingTop=-4;fontSize=14;fontFamily=Verdana" parent="1" vertex="1">
          <mxGeometry x="190" y="175" width="60" height="20" as="geometry" />
        </mxCell>
        <mxCell id="677b7b8949515195-14" value="Vestuarios" style="text;html=1;points=[];align=left;verticalAlign=top;spacingTop=-4;fontSize=14;fontFamily=Verdana;fontColor=#FFFFFF;" parent="1" vertex="1">
          <mxGeometry x="260" y="175" width="80" height="20" as="geometry" />
        </mxCell>
        <mxCell id="677b7b8949515195-15" value="&lt;div style=&quot;text-align: justify&quot;&gt;&lt;font style=&quot;font-size: 30px;&quot;&gt;INFORMACIÓN GENERAL&lt;/font&gt;&lt;/div&gt;" style="whiteSpace=wrap;html=1;rounded=0;shadow=0;labelBackgroundColor=none;strokeWidth=1;fillColor=none;fontFamily=Verdana;fontSize=12;align=center;verticalAlign=top;spacing=10;comic=1;" parent="1" vertex="1">
          <mxGeometry x="50" y="710" width="1010" height="110" as="geometry" />
        </mxCell>
        <mxCell id="O-Ux-SurYgGy56MYbRqD-2" value="Botas" style="text;html=1;points=[];align=left;verticalAlign=top;spacingTop=-4;fontSize=14;fontFamily=Verdana" parent="1" vertex="1">
          <mxGeometry x="350" y="177.5" width="80" height="20" as="geometry" />
        </mxCell>
        <mxCell id="O-Ux-SurYgGy56MYbRqD-3" value="Maletas&amp;nbsp;" style="text;html=1;points=[];align=left;verticalAlign=top;spacingTop=-4;fontSize=14;fontFamily=Verdana" parent="1" vertex="1">
          <mxGeometry x="420" y="177.5" width="70" height="20" as="geometry" />
        </mxCell>
        <mxCell id="O-Ux-SurYgGy56MYbRqD-4" value="Guantes" style="text;html=1;points=[];align=left;verticalAlign=top;spacingTop=-4;fontSize=14;fontFamily=Verdana" parent="1" vertex="1">
          <mxGeometry x="490" y="177.5" width="70" height="20" as="geometry" />
        </mxCell>
        <mxCell id="O-Ux-SurYgGy56MYbRqD-5" value="" style="rounded=0;whiteSpace=wrap;html=1;image=https://png.pngtree.com/png-vector/20190725/ourlarge/pngtree-vector-shopping-bag-icon-png-image_1577291.jpg;" parent="1" vertex="1">
          <mxGeometry x="1020" y="85" width="40" height="35" as="geometry" />
        </mxCell>
        <mxCell id="O-Ux-SurYgGy56MYbRqD-7" value="&lt;font style=&quot;font-size: 30px;&quot;&gt;LO MAS VENDIDO&lt;/font&gt;" style="whiteSpace=wrap;html=1;aspect=fixed;fontSize=60;" parent="1" vertex="1">
          <mxGeometry x="70" y="440" width="220" height="220" as="geometry" />
        </mxCell>
        <mxCell id="O-Ux-SurYgGy56MYbRqD-12" value="&lt;font style=&quot;font-size: 95px;&quot;&gt;OFERTAS&lt;br&gt;&lt;/font&gt;" style="rounded=0;whiteSpace=wrap;html=1;" parent="1" vertex="1">
          <mxGeometry x="70" y="240" width="950" height="180" as="geometry" />
        </mxCell>
        <mxCell id="O-Ux-SurYgGy56MYbRqD-13" value="&lt;font style=&quot;font-size: 30px;&quot;&gt;LO MAS BUSCADO&lt;/font&gt;" style="whiteSpace=wrap;html=1;aspect=fixed;fontSize=60;" parent="1" vertex="1">
          <mxGeometry x="310" y="440" width="220" height="220" as="geometry" />
        </mxCell>
        <mxCell id="O-Ux-SurYgGy56MYbRqD-14" value="&lt;span style=&quot;font-size: 30px;&quot;&gt;MUJERES&lt;/span&gt;" style="whiteSpace=wrap;html=1;aspect=fixed;fontSize=60;" parent="1" vertex="1">
          <mxGeometry x="560" y="440" width="220" height="220" as="geometry" />
        </mxCell>
        <mxCell id="O-Ux-SurYgGy56MYbRqD-15" value="&lt;span style=&quot;font-size: 30px;&quot;&gt;NUEVOS PRODUCTOS&lt;/span&gt;" style="whiteSpace=wrap;html=1;aspect=fixed;fontSize=60;" parent="1" vertex="1">
          <mxGeometry x="800" y="440" width="220" height="220" as="geometry" />
        </mxCell>
        <mxCell id="O-Ux-SurYgGy56MYbRqD-18" value="Guantes" style="text;html=1;points=[];align=left;verticalAlign=top;spacingTop=-4;fontSize=14;fontFamily=Verdana" parent="1" vertex="1">
          <mxGeometry x="490" y="177.5" width="70" height="20" as="geometry" />
        </mxCell>
        <mxCell id="O-Ux-SurYgGy56MYbRqD-19" value="Maletas&amp;nbsp;" style="text;html=1;points=[];align=left;verticalAlign=top;spacingTop=-4;fontSize=14;fontFamily=Verdana" parent="1" vertex="1">
          <mxGeometry x="420" y="177.5" width="70" height="20" as="geometry" />
        </mxCell>
        <mxCell id="O-Ux-SurYgGy56MYbRqD-20" value="Guantes" style="text;html=1;points=[];align=left;verticalAlign=top;spacingTop=-4;fontSize=14;fontFamily=Verdana" parent="1" vertex="1">
          <mxGeometry x="490" y="177.5" width="70" height="20" as="geometry" />
        </mxCell>
        <mxCell id="O-Ux-SurYgGy56MYbRqD-21" value="Maletas&amp;nbsp;" style="text;html=1;points=[];align=left;verticalAlign=top;spacingTop=-4;fontSize=14;fontFamily=Verdana" parent="1" vertex="1">
          <mxGeometry x="420" y="177.5" width="70" height="20" as="geometry" />
        </mxCell>
        <mxCell id="O-Ux-SurYgGy56MYbRqD-22" value="Guantes" style="text;html=1;points=[];align=left;verticalAlign=top;spacingTop=-4;fontSize=14;fontFamily=Verdana" parent="1" vertex="1">
          <mxGeometry x="490" y="177.5" width="70" height="20" as="geometry" />
        </mxCell>
        <mxCell id="O-Ux-SurYgGy56MYbRqD-23" value="Maletas&amp;nbsp;" style="text;html=1;points=[];align=left;verticalAlign=top;spacingTop=-4;fontSize=14;fontFamily=Verdana" parent="1" vertex="1">
          <mxGeometry x="420" y="177.5" width="70" height="20" as="geometry" />
        </mxCell>
        <mxCell id="O-Ux-SurYgGy56MYbRqD-24" value="Botas" style="text;html=1;points=[];align=left;verticalAlign=top;spacingTop=-4;fontSize=14;fontFamily=Verdana" parent="1" vertex="1">
          <mxGeometry x="350" y="177.5" width="80" height="20" as="geometry" />
        </mxCell>
        <mxCell id="O-Ux-SurYgGy56MYbRqD-25" value="Guantes" style="text;html=1;points=[];align=left;verticalAlign=top;spacingTop=-4;fontSize=14;fontFamily=Verdana;fontColor=#FFFFFF;" parent="1" vertex="1">
          <mxGeometry x="490" y="176.25" width="70" height="20" as="geometry" />
        </mxCell>
        <mxCell id="O-Ux-SurYgGy56MYbRqD-26" value="Maletas&amp;nbsp;" style="text;html=1;points=[];align=left;verticalAlign=top;spacingTop=-4;fontSize=14;fontFamily=Verdana;fontColor=#FFFFFF;" parent="1" vertex="1">
          <mxGeometry x="420" y="176.25" width="70" height="20" as="geometry" />
        </mxCell>
        <mxCell id="O-Ux-SurYgGy56MYbRqD-27" value="Botas" style="text;html=1;points=[];align=left;verticalAlign=top;spacingTop=-4;fontSize=14;fontFamily=Verdana;fontColor=#FFFFFF;" parent="1" vertex="1">
          <mxGeometry x="350" y="176.25" width="80" height="20" as="geometry" />
        </mxCell>
        <mxCell id="O-Ux-SurYgGy56MYbRqD-28" value="Cascos" style="text;html=1;points=[];align=left;verticalAlign=top;spacingTop=-4;fontSize=14;fontFamily=Verdana;fontColor=#FFFFFF;" parent="1" vertex="1">
          <mxGeometry x="190" y="173.75" width="60" height="20" as="geometry" />
        </mxCell>
      </root>
    </mxGraphModel>
  </diagram>
  <diagram name="Detalle de producto" id="qi6E903TK2gSdMtH_BAd">
    <mxGraphModel dx="1038" dy="579" grid="1" gridSize="10" guides="1" tooltips="1" connect="1" arrows="1" fold="1" page="1" pageScale="1" pageWidth="1100" pageHeight="850" background="#ffffff" math="0" shadow="0">
      <root>
        <mxCell id="sINpw-YLxs04fBcpuQgI-0" />
        <mxCell id="sINpw-YLxs04fBcpuQgI-1" parent="sINpw-YLxs04fBcpuQgI-0" />
        <mxCell id="sINpw-YLxs04fBcpuQgI-2" value="" style="whiteSpace=wrap;html=1;rounded=0;shadow=0;labelBackgroundColor=none;strokeColor=#23445d;strokeWidth=1;fillColor=#bac8d3;fontFamily=Verdana;fontSize=12;align=center;comic=1;" parent="sINpw-YLxs04fBcpuQgI-1" vertex="1">
          <mxGeometry x="20" y="20" width="1060" height="810" as="geometry" />
        </mxCell>
        <mxCell id="sINpw-YLxs04fBcpuQgI-3" value="LOGO" style="whiteSpace=wrap;html=1;rounded=0;shadow=0;labelBackgroundColor=none;strokeWidth=1;fontFamily=Verdana;fontSize=28;align=center;comic=1;" parent="sINpw-YLxs04fBcpuQgI-1" vertex="1">
          <mxGeometry x="60" y="60" width="190" height="50" as="geometry" />
        </mxCell>
        <mxCell id="sINpw-YLxs04fBcpuQgI-4" value="Search" style="strokeWidth=1;shadow=0;dashed=0;align=center;html=1;shape=mxgraph.mockup.forms.searchBox;strokeColor=#999999;mainText=;strokeColor2=#008cff;fontColor=#666666;fontSize=17;align=left;spacingLeft=3;rounded=0;labelBackgroundColor=none;comic=1;" parent="sINpw-YLxs04fBcpuQgI-1" vertex="1">
          <mxGeometry x="750" y="90" width="220" height="30" as="geometry" />
        </mxCell>
        <mxCell id="sINpw-YLxs04fBcpuQgI-5" value="Información" style="text;html=1;points=[];align=left;verticalAlign=top;spacingTop=-4;fontSize=14;fontFamily=Verdana" parent="sINpw-YLxs04fBcpuQgI-1" vertex="1">
          <mxGeometry x="750" y="40" width="60" height="20" as="geometry" />
        </mxCell>
        <mxCell id="sINpw-YLxs04fBcpuQgI-6" value="Registrate" style="text;html=1;points=[];align=left;verticalAlign=top;spacingTop=-4;fontSize=14;fontFamily=Verdana" parent="sINpw-YLxs04fBcpuQgI-1" vertex="1">
          <mxGeometry x="880" y="40" width="60" height="20" as="geometry" />
        </mxCell>
        <mxCell id="sINpw-YLxs04fBcpuQgI-7" value="Log in" style="text;html=1;points=[];align=left;verticalAlign=top;spacingTop=-4;fontSize=14;fontFamily=Verdana" parent="sINpw-YLxs04fBcpuQgI-1" vertex="1">
          <mxGeometry x="1000" y="40" width="60" height="20" as="geometry" />
        </mxCell>
        <mxCell id="sINpw-YLxs04fBcpuQgI-8" value="" style="line;strokeWidth=1;html=1;rounded=0;shadow=0;labelBackgroundColor=none;fillColor=none;fontFamily=Verdana;fontSize=14;fontColor=#000000;align=center;comic=1;" parent="sINpw-YLxs04fBcpuQgI-1" vertex="1">
          <mxGeometry x="20" y="140" width="1060" height="10" as="geometry" />
        </mxCell>
        <mxCell id="sINpw-YLxs04fBcpuQgI-9" value="" style="whiteSpace=wrap;html=1;rounded=0;shadow=0;labelBackgroundColor=none;strokeWidth=1;fillColor=#000000;fontFamily=Verdana;fontSize=12;align=center;comic=1;" parent="sINpw-YLxs04fBcpuQgI-1" vertex="1">
          <mxGeometry x="30" y="160" width="1040" height="50" as="geometry" />
        </mxCell>
        <mxCell id="sINpw-YLxs04fBcpuQgI-10" value="Home" style="text;html=1;points=[];align=left;verticalAlign=top;spacingTop=-4;fontSize=14;fontFamily=Verdana;fontColor=#FFFFFF;" parent="sINpw-YLxs04fBcpuQgI-1" vertex="1">
          <mxGeometry x="40" y="174" width="60" height="20" as="geometry" />
        </mxCell>
        <mxCell id="sINpw-YLxs04fBcpuQgI-11" value="Accesorios" style="text;html=1;points=[];align=left;verticalAlign=middle;spacingTop=-4;fontSize=14;fontFamily=Verdana;fillColor=#647687;strokeColor=#314354;fontColor=#ffffff;" parent="sINpw-YLxs04fBcpuQgI-1" vertex="1">
          <mxGeometry x="100" y="172.5" width="80" height="25" as="geometry" />
        </mxCell>
        <mxCell id="sINpw-YLxs04fBcpuQgI-12" value="Cascos" style="text;html=1;points=[];align=left;verticalAlign=top;spacingTop=-4;fontSize=14;fontFamily=Verdana" parent="sINpw-YLxs04fBcpuQgI-1" vertex="1">
          <mxGeometry x="190" y="175" width="60" height="20" as="geometry" />
        </mxCell>
        <mxCell id="sINpw-YLxs04fBcpuQgI-13" value="Vestuarios" style="text;html=1;points=[];align=left;verticalAlign=top;spacingTop=-4;fontSize=14;fontFamily=Verdana;fontColor=#FFFFFF;" parent="sINpw-YLxs04fBcpuQgI-1" vertex="1">
          <mxGeometry x="260" y="175" width="80" height="20" as="geometry" />
        </mxCell>
        <mxCell id="sINpw-YLxs04fBcpuQgI-14" value="&lt;div style=&quot;text-align: justify&quot;&gt;&lt;font style=&quot;font-size: 30px;&quot;&gt;INFORMACIÓN GENERAL&lt;/font&gt;&lt;/div&gt;" style="whiteSpace=wrap;html=1;rounded=0;shadow=0;labelBackgroundColor=none;strokeWidth=1;fillColor=none;fontFamily=Verdana;fontSize=12;align=center;verticalAlign=top;spacing=10;comic=1;" parent="sINpw-YLxs04fBcpuQgI-1" vertex="1">
          <mxGeometry x="50" y="710" width="1010" height="110" as="geometry" />
        </mxCell>
        <mxCell id="sINpw-YLxs04fBcpuQgI-15" value="Botas" style="text;html=1;points=[];align=left;verticalAlign=top;spacingTop=-4;fontSize=14;fontFamily=Verdana" parent="sINpw-YLxs04fBcpuQgI-1" vertex="1">
          <mxGeometry x="350" y="177.5" width="80" height="20" as="geometry" />
        </mxCell>
        <mxCell id="sINpw-YLxs04fBcpuQgI-16" value="Maletas&amp;nbsp;" style="text;html=1;points=[];align=left;verticalAlign=top;spacingTop=-4;fontSize=14;fontFamily=Verdana" parent="sINpw-YLxs04fBcpuQgI-1" vertex="1">
          <mxGeometry x="420" y="177.5" width="70" height="20" as="geometry" />
        </mxCell>
        <mxCell id="sINpw-YLxs04fBcpuQgI-17" value="Guantes" style="text;html=1;points=[];align=left;verticalAlign=top;spacingTop=-4;fontSize=14;fontFamily=Verdana" parent="sINpw-YLxs04fBcpuQgI-1" vertex="1">
          <mxGeometry x="490" y="177.5" width="70" height="20" as="geometry" />
        </mxCell>
        <mxCell id="sINpw-YLxs04fBcpuQgI-18" value="" style="rounded=0;whiteSpace=wrap;html=1;image=https://png.pngtree.com/png-vector/20190725/ourlarge/pngtree-vector-shopping-bag-icon-png-image_1577291.jpg;" parent="sINpw-YLxs04fBcpuQgI-1" vertex="1">
          <mxGeometry x="1020" y="85" width="40" height="35" as="geometry" />
        </mxCell>
        <mxCell id="sINpw-YLxs04fBcpuQgI-21" value="" style="whiteSpace=wrap;html=1;aspect=fixed;fontSize=60;image=https://png.pngtree.com/png-vector/20191030/ourlarge/pngtree-racing-helmet-icon-simple-style-png-image_1911229.jpg;perimeterSpacing=1;noLabel=1;autosize=1;imageWidth=350;arcSize=12;imageHeight=350;" parent="sINpw-YLxs04fBcpuQgI-1" vertex="1">
          <mxGeometry x="60" y="260" width="380" height="380" as="geometry" />
        </mxCell>
        <mxCell id="sINpw-YLxs04fBcpuQgI-24" value="Guantes" style="text;html=1;points=[];align=left;verticalAlign=top;spacingTop=-4;fontSize=14;fontFamily=Verdana" parent="sINpw-YLxs04fBcpuQgI-1" vertex="1">
          <mxGeometry x="490" y="177.5" width="70" height="20" as="geometry" />
        </mxCell>
        <mxCell id="sINpw-YLxs04fBcpuQgI-25" value="Maletas&amp;nbsp;" style="text;html=1;points=[];align=left;verticalAlign=top;spacingTop=-4;fontSize=14;fontFamily=Verdana" parent="sINpw-YLxs04fBcpuQgI-1" vertex="1">
          <mxGeometry x="420" y="177.5" width="70" height="20" as="geometry" />
        </mxCell>
        <mxCell id="sINpw-YLxs04fBcpuQgI-26" value="Guantes" style="text;html=1;points=[];align=left;verticalAlign=top;spacingTop=-4;fontSize=14;fontFamily=Verdana" parent="sINpw-YLxs04fBcpuQgI-1" vertex="1">
          <mxGeometry x="490" y="177.5" width="70" height="20" as="geometry" />
        </mxCell>
        <mxCell id="sINpw-YLxs04fBcpuQgI-27" value="Maletas&amp;nbsp;" style="text;html=1;points=[];align=left;verticalAlign=top;spacingTop=-4;fontSize=14;fontFamily=Verdana" parent="sINpw-YLxs04fBcpuQgI-1" vertex="1">
          <mxGeometry x="420" y="177.5" width="70" height="20" as="geometry" />
        </mxCell>
        <mxCell id="sINpw-YLxs04fBcpuQgI-28" value="Guantes" style="text;html=1;points=[];align=left;verticalAlign=top;spacingTop=-4;fontSize=14;fontFamily=Verdana" parent="sINpw-YLxs04fBcpuQgI-1" vertex="1">
          <mxGeometry x="490" y="177.5" width="70" height="20" as="geometry" />
        </mxCell>
        <mxCell id="sINpw-YLxs04fBcpuQgI-29" value="Maletas&amp;nbsp;" style="text;html=1;points=[];align=left;verticalAlign=top;spacingTop=-4;fontSize=14;fontFamily=Verdana" parent="sINpw-YLxs04fBcpuQgI-1" vertex="1">
          <mxGeometry x="420" y="177.5" width="70" height="20" as="geometry" />
        </mxCell>
        <mxCell id="sINpw-YLxs04fBcpuQgI-30" value="Botas" style="text;html=1;points=[];align=left;verticalAlign=top;spacingTop=-4;fontSize=14;fontFamily=Verdana" parent="sINpw-YLxs04fBcpuQgI-1" vertex="1">
          <mxGeometry x="350" y="177.5" width="80" height="20" as="geometry" />
        </mxCell>
        <mxCell id="sINpw-YLxs04fBcpuQgI-31" value="Guantes" style="text;html=1;points=[];align=left;verticalAlign=top;spacingTop=-4;fontSize=14;fontFamily=Verdana;fontColor=#FFFFFF;" parent="sINpw-YLxs04fBcpuQgI-1" vertex="1">
          <mxGeometry x="490" y="176.25" width="70" height="20" as="geometry" />
        </mxCell>
        <mxCell id="sINpw-YLxs04fBcpuQgI-32" value="Maletas&amp;nbsp;" style="text;html=1;points=[];align=left;verticalAlign=top;spacingTop=-4;fontSize=14;fontFamily=Verdana;fontColor=#FFFFFF;" parent="sINpw-YLxs04fBcpuQgI-1" vertex="1">
          <mxGeometry x="420" y="176.25" width="70" height="20" as="geometry" />
        </mxCell>
        <mxCell id="sINpw-YLxs04fBcpuQgI-33" value="Botas" style="text;html=1;points=[];align=left;verticalAlign=top;spacingTop=-4;fontSize=14;fontFamily=Verdana;fontColor=#FFFFFF;" parent="sINpw-YLxs04fBcpuQgI-1" vertex="1">
          <mxGeometry x="350" y="176.25" width="80" height="20" as="geometry" />
        </mxCell>
        <mxCell id="sINpw-YLxs04fBcpuQgI-34" value="Cascos" style="text;html=1;points=[];align=left;verticalAlign=top;spacingTop=-4;fontSize=14;fontFamily=Verdana;fontColor=#FFFFFF;" parent="sINpw-YLxs04fBcpuQgI-1" vertex="1">
          <mxGeometry x="190" y="173.75" width="60" height="20" as="geometry" />
        </mxCell>
        <mxCell id="zGtK6ONJGtK0DiuM_sqW-0" value="&lt;font style=&quot;font-size: 50px;&quot;&gt;Nombre del producto&amp;nbsp;&lt;/font&gt;" style="rounded=0;whiteSpace=wrap;html=1;fillColor=default;" vertex="1" parent="sINpw-YLxs04fBcpuQgI-1">
          <mxGeometry x="460" y="260" width="530" height="50" as="geometry" />
        </mxCell>
        <mxCell id="zGtK6ONJGtK0DiuM_sqW-1" value="&lt;font style=&quot;font-size: 50px;&quot;&gt;Precio&lt;/font&gt;" style="rounded=0;whiteSpace=wrap;html=1;fillColor=default;" vertex="1" parent="sINpw-YLxs04fBcpuQgI-1">
          <mxGeometry x="620" y="450" width="200" height="50" as="geometry" />
        </mxCell>
        <mxCell id="zGtK6ONJGtK0DiuM_sqW-2" value="&lt;font style=&quot;font-size: 50px;&quot;&gt;Descripción&lt;/font&gt;" style="rounded=0;whiteSpace=wrap;html=1;fillColor=default;" vertex="1" parent="sINpw-YLxs04fBcpuQgI-1">
          <mxGeometry x="460" y="330" width="530" height="100" as="geometry" />
        </mxCell>
        <mxCell id="zGtK6ONJGtK0DiuM_sqW-4" value="&lt;font style=&quot;font-size: 30px;&quot;&gt;Cantidad&lt;br&gt;+&amp;nbsp; #&amp;nbsp; -&lt;br&gt;&lt;/font&gt;" style="rounded=0;whiteSpace=wrap;html=1;fontSize=50;fillColor=default;" vertex="1" parent="sINpw-YLxs04fBcpuQgI-1">
          <mxGeometry x="460" y="520" width="175" height="110" as="geometry" />
        </mxCell>
        <mxCell id="zGtK6ONJGtK0DiuM_sqW-7" value="Agregar al carrito" style="rounded=0;whiteSpace=wrap;html=1;fontSize=30;fillColor=default;" vertex="1" parent="sINpw-YLxs04fBcpuQgI-1">
          <mxGeometry x="660" y="540" width="300" height="60" as="geometry" />
        </mxCell>
      </root>
    </mxGraphModel>
  </diagram>
  <diagram name="Formulario de login" id="VzM5I8L_-rxzLngUdPf-">
    <mxGraphModel dx="1038" dy="579" grid="1" gridSize="10" guides="1" tooltips="1" connect="1" arrows="1" fold="1" page="1" pageScale="1" pageWidth="1100" pageHeight="850" background="#ffffff" math="0" shadow="0">
      <root>
        <mxCell id="i_mGAdCIbHoOMKgwmb20-0" />
        <mxCell id="i_mGAdCIbHoOMKgwmb20-1" parent="i_mGAdCIbHoOMKgwmb20-0" />
        <mxCell id="i_mGAdCIbHoOMKgwmb20-2" value="" style="whiteSpace=wrap;html=1;rounded=0;shadow=0;labelBackgroundColor=none;strokeColor=#23445d;strokeWidth=1;fillColor=#bac8d3;fontFamily=Verdana;fontSize=12;align=center;comic=1;" vertex="1" parent="i_mGAdCIbHoOMKgwmb20-1">
          <mxGeometry x="20" y="20" width="1060" height="810" as="geometry" />
        </mxCell>
        <mxCell id="i_mGAdCIbHoOMKgwmb20-3" value="LOGO" style="whiteSpace=wrap;html=1;rounded=0;shadow=0;labelBackgroundColor=none;strokeWidth=1;fontFamily=Verdana;fontSize=28;align=center;comic=1;" vertex="1" parent="i_mGAdCIbHoOMKgwmb20-1">
          <mxGeometry x="60" y="60" width="190" height="50" as="geometry" />
        </mxCell>
        <mxCell id="i_mGAdCIbHoOMKgwmb20-4" value="Search" style="strokeWidth=1;shadow=0;dashed=0;align=center;html=1;shape=mxgraph.mockup.forms.searchBox;strokeColor=#999999;mainText=;strokeColor2=#008cff;fontColor=#666666;fontSize=17;align=left;spacingLeft=3;rounded=0;labelBackgroundColor=none;comic=1;" vertex="1" parent="i_mGAdCIbHoOMKgwmb20-1">
          <mxGeometry x="750" y="90" width="220" height="30" as="geometry" />
        </mxCell>
        <mxCell id="i_mGAdCIbHoOMKgwmb20-5" value="Información" style="text;html=1;points=[];align=left;verticalAlign=top;spacingTop=-4;fontSize=14;fontFamily=Verdana" vertex="1" parent="i_mGAdCIbHoOMKgwmb20-1">
          <mxGeometry x="750" y="40" width="60" height="20" as="geometry" />
        </mxCell>
        <mxCell id="i_mGAdCIbHoOMKgwmb20-6" value="Registrate" style="text;html=1;points=[];align=left;verticalAlign=top;spacingTop=-4;fontSize=14;fontFamily=Verdana" vertex="1" parent="i_mGAdCIbHoOMKgwmb20-1">
          <mxGeometry x="880" y="40" width="60" height="20" as="geometry" />
        </mxCell>
        <mxCell id="i_mGAdCIbHoOMKgwmb20-7" value="&amp;nbsp;Login" style="text;html=1;points=[];align=left;verticalAlign=top;spacingTop=-4;fontSize=14;fontFamily=Verdana;fillColor=#647687;fontColor=#ffffff;strokeColor=#314354;" vertex="1" parent="i_mGAdCIbHoOMKgwmb20-1">
          <mxGeometry x="980" y="40" width="50" height="20" as="geometry" />
        </mxCell>
        <mxCell id="i_mGAdCIbHoOMKgwmb20-8" value="" style="line;strokeWidth=1;html=1;rounded=0;shadow=0;labelBackgroundColor=none;fillColor=none;fontFamily=Verdana;fontSize=14;fontColor=#000000;align=center;comic=1;" vertex="1" parent="i_mGAdCIbHoOMKgwmb20-1">
          <mxGeometry x="20" y="140" width="1060" height="10" as="geometry" />
        </mxCell>
        <mxCell id="i_mGAdCIbHoOMKgwmb20-9" value="" style="whiteSpace=wrap;html=1;rounded=0;shadow=0;labelBackgroundColor=none;strokeWidth=1;fillColor=#000000;fontFamily=Verdana;fontSize=12;align=center;comic=1;" vertex="1" parent="i_mGAdCIbHoOMKgwmb20-1">
          <mxGeometry x="30" y="160" width="1040" height="50" as="geometry" />
        </mxCell>
        <mxCell id="i_mGAdCIbHoOMKgwmb20-10" value="Home" style="text;html=1;points=[];align=left;verticalAlign=top;spacingTop=-4;fontSize=14;fontFamily=Verdana;fontColor=#FFFFFF;" vertex="1" parent="i_mGAdCIbHoOMKgwmb20-1">
          <mxGeometry x="40" y="174" width="60" height="20" as="geometry" />
        </mxCell>
        <mxCell id="i_mGAdCIbHoOMKgwmb20-11" value="Accesorios" style="text;html=1;points=[];align=left;verticalAlign=top;spacingTop=-4;fontSize=14;fontFamily=Verdana;fontColor=#FFFFFF;" vertex="1" parent="i_mGAdCIbHoOMKgwmb20-1">
          <mxGeometry x="100" y="172.5" width="80" height="25" as="geometry" />
        </mxCell>
        <mxCell id="i_mGAdCIbHoOMKgwmb20-12" value="Cascos" style="text;html=1;points=[];align=left;verticalAlign=top;spacingTop=-4;fontSize=14;fontFamily=Verdana" vertex="1" parent="i_mGAdCIbHoOMKgwmb20-1">
          <mxGeometry x="190" y="175" width="60" height="20" as="geometry" />
        </mxCell>
        <mxCell id="i_mGAdCIbHoOMKgwmb20-13" value="Vestuarios" style="text;html=1;points=[];align=left;verticalAlign=top;spacingTop=-4;fontSize=14;fontFamily=Verdana;fontColor=#FFFFFF;" vertex="1" parent="i_mGAdCIbHoOMKgwmb20-1">
          <mxGeometry x="260" y="175" width="80" height="20" as="geometry" />
        </mxCell>
        <mxCell id="i_mGAdCIbHoOMKgwmb20-14" value="&lt;div style=&quot;text-align: justify&quot;&gt;&lt;font style=&quot;font-size: 30px;&quot;&gt;INFORMACIÓN GENERAL&lt;/font&gt;&lt;/div&gt;" style="whiteSpace=wrap;html=1;rounded=0;shadow=0;labelBackgroundColor=none;strokeWidth=1;fillColor=none;fontFamily=Verdana;fontSize=12;align=center;verticalAlign=top;spacing=10;comic=1;" vertex="1" parent="i_mGAdCIbHoOMKgwmb20-1">
          <mxGeometry x="50" y="710" width="1010" height="110" as="geometry" />
        </mxCell>
        <mxCell id="i_mGAdCIbHoOMKgwmb20-15" value="Botas" style="text;html=1;points=[];align=left;verticalAlign=top;spacingTop=-4;fontSize=14;fontFamily=Verdana" vertex="1" parent="i_mGAdCIbHoOMKgwmb20-1">
          <mxGeometry x="350" y="177.5" width="80" height="20" as="geometry" />
        </mxCell>
        <mxCell id="i_mGAdCIbHoOMKgwmb20-16" value="Maletas&amp;nbsp;" style="text;html=1;points=[];align=left;verticalAlign=top;spacingTop=-4;fontSize=14;fontFamily=Verdana" vertex="1" parent="i_mGAdCIbHoOMKgwmb20-1">
          <mxGeometry x="420" y="177.5" width="70" height="20" as="geometry" />
        </mxCell>
        <mxCell id="i_mGAdCIbHoOMKgwmb20-17" value="Guantes" style="text;html=1;points=[];align=left;verticalAlign=top;spacingTop=-4;fontSize=14;fontFamily=Verdana" vertex="1" parent="i_mGAdCIbHoOMKgwmb20-1">
          <mxGeometry x="490" y="177.5" width="70" height="20" as="geometry" />
        </mxCell>
        <mxCell id="i_mGAdCIbHoOMKgwmb20-18" value="" style="rounded=0;whiteSpace=wrap;html=1;image=https://png.pngtree.com/png-vector/20190725/ourlarge/pngtree-vector-shopping-bag-icon-png-image_1577291.jpg;" vertex="1" parent="i_mGAdCIbHoOMKgwmb20-1">
          <mxGeometry x="1020" y="85" width="40" height="35" as="geometry" />
        </mxCell>
        <mxCell id="i_mGAdCIbHoOMKgwmb20-24" value="Guantes" style="text;html=1;points=[];align=left;verticalAlign=top;spacingTop=-4;fontSize=14;fontFamily=Verdana" vertex="1" parent="i_mGAdCIbHoOMKgwmb20-1">
          <mxGeometry x="490" y="177.5" width="70" height="20" as="geometry" />
        </mxCell>
        <mxCell id="i_mGAdCIbHoOMKgwmb20-25" value="Maletas&amp;nbsp;" style="text;html=1;points=[];align=left;verticalAlign=top;spacingTop=-4;fontSize=14;fontFamily=Verdana" vertex="1" parent="i_mGAdCIbHoOMKgwmb20-1">
          <mxGeometry x="420" y="177.5" width="70" height="20" as="geometry" />
        </mxCell>
        <mxCell id="i_mGAdCIbHoOMKgwmb20-26" value="Guantes" style="text;html=1;points=[];align=left;verticalAlign=top;spacingTop=-4;fontSize=14;fontFamily=Verdana" vertex="1" parent="i_mGAdCIbHoOMKgwmb20-1">
          <mxGeometry x="490" y="177.5" width="70" height="20" as="geometry" />
        </mxCell>
        <mxCell id="i_mGAdCIbHoOMKgwmb20-27" value="Maletas&amp;nbsp;" style="text;html=1;points=[];align=left;verticalAlign=top;spacingTop=-4;fontSize=14;fontFamily=Verdana" vertex="1" parent="i_mGAdCIbHoOMKgwmb20-1">
          <mxGeometry x="420" y="177.5" width="70" height="20" as="geometry" />
        </mxCell>
        <mxCell id="i_mGAdCIbHoOMKgwmb20-28" value="Guantes" style="text;html=1;points=[];align=left;verticalAlign=top;spacingTop=-4;fontSize=14;fontFamily=Verdana" vertex="1" parent="i_mGAdCIbHoOMKgwmb20-1">
          <mxGeometry x="490" y="177.5" width="70" height="20" as="geometry" />
        </mxCell>
        <mxCell id="i_mGAdCIbHoOMKgwmb20-29" value="Maletas&amp;nbsp;" style="text;html=1;points=[];align=left;verticalAlign=top;spacingTop=-4;fontSize=14;fontFamily=Verdana" vertex="1" parent="i_mGAdCIbHoOMKgwmb20-1">
          <mxGeometry x="420" y="177.5" width="70" height="20" as="geometry" />
        </mxCell>
        <mxCell id="i_mGAdCIbHoOMKgwmb20-30" value="Botas" style="text;html=1;points=[];align=left;verticalAlign=top;spacingTop=-4;fontSize=14;fontFamily=Verdana" vertex="1" parent="i_mGAdCIbHoOMKgwmb20-1">
          <mxGeometry x="350" y="177.5" width="80" height="20" as="geometry" />
        </mxCell>
        <mxCell id="i_mGAdCIbHoOMKgwmb20-31" value="Guantes" style="text;html=1;points=[];align=left;verticalAlign=top;spacingTop=-4;fontSize=14;fontFamily=Verdana;fontColor=#FFFFFF;" vertex="1" parent="i_mGAdCIbHoOMKgwmb20-1">
          <mxGeometry x="490" y="176.25" width="70" height="20" as="geometry" />
        </mxCell>
        <mxCell id="i_mGAdCIbHoOMKgwmb20-32" value="Maletas&amp;nbsp;" style="text;html=1;points=[];align=left;verticalAlign=top;spacingTop=-4;fontSize=14;fontFamily=Verdana;fontColor=#FFFFFF;" vertex="1" parent="i_mGAdCIbHoOMKgwmb20-1">
          <mxGeometry x="420" y="176.25" width="70" height="20" as="geometry" />
        </mxCell>
        <mxCell id="i_mGAdCIbHoOMKgwmb20-33" value="Botas" style="text;html=1;points=[];align=left;verticalAlign=top;spacingTop=-4;fontSize=14;fontFamily=Verdana;fontColor=#FFFFFF;" vertex="1" parent="i_mGAdCIbHoOMKgwmb20-1">
          <mxGeometry x="350" y="176.25" width="80" height="20" as="geometry" />
        </mxCell>
        <mxCell id="i_mGAdCIbHoOMKgwmb20-34" value="Cascos" style="text;html=1;points=[];align=left;verticalAlign=top;spacingTop=-4;fontSize=14;fontFamily=Verdana;fontColor=#FFFFFF;" vertex="1" parent="i_mGAdCIbHoOMKgwmb20-1">
          <mxGeometry x="190" y="173.75" width="60" height="20" as="geometry" />
        </mxCell>
        <mxCell id="viNx9agjpTYcsfCNJVuc-0" value="" style="rounded=0;whiteSpace=wrap;html=1;fontSize=30;fillColor=default;" vertex="1" parent="i_mGAdCIbHoOMKgwmb20-1">
          <mxGeometry x="240" y="250" width="650" height="420" as="geometry" />
        </mxCell>
        <mxCell id="viNx9agjpTYcsfCNJVuc-1" value="" style="rounded=0;whiteSpace=wrap;html=1;fontSize=30;fillColor=default;" vertex="1" parent="i_mGAdCIbHoOMKgwmb20-1">
          <mxGeometry x="460" y="405" width="280" height="40" as="geometry" />
        </mxCell>
        <mxCell id="viNx9agjpTYcsfCNJVuc-2" value="" style="rounded=0;whiteSpace=wrap;html=1;fontSize=30;fillColor=default;" vertex="1" parent="i_mGAdCIbHoOMKgwmb20-1">
          <mxGeometry x="460" y="470" width="280" height="40" as="geometry" />
        </mxCell>
        <mxCell id="viNx9agjpTYcsfCNJVuc-3" value="&lt;font style=&quot;font-size: 20px;&quot;&gt;Olvidaste la contraseña?&lt;br&gt;Registrarse&lt;/font&gt;" style="text;html=1;strokeColor=none;fillColor=none;align=center;verticalAlign=middle;whiteSpace=wrap;rounded=0;fontSize=30;" vertex="1" parent="i_mGAdCIbHoOMKgwmb20-1">
          <mxGeometry x="360" y="560" width="380" height="70" as="geometry" />
        </mxCell>
        <mxCell id="viNx9agjpTYcsfCNJVuc-4" value="Usuario" style="text;html=1;strokeColor=none;fillColor=none;align=center;verticalAlign=middle;whiteSpace=wrap;rounded=0;fontSize=20;" vertex="1" parent="i_mGAdCIbHoOMKgwmb20-1">
          <mxGeometry x="330" y="410" width="100" height="30" as="geometry" />
        </mxCell>
        <mxCell id="viNx9agjpTYcsfCNJVuc-5" value="Contraseña" style="text;html=1;strokeColor=none;fillColor=none;align=center;verticalAlign=middle;whiteSpace=wrap;rounded=0;fontSize=20;" vertex="1" parent="i_mGAdCIbHoOMKgwmb20-1">
          <mxGeometry x="330" y="480" width="100" height="30" as="geometry" />
        </mxCell>
        <mxCell id="viNx9agjpTYcsfCNJVuc-6" value="&lt;font style=&quot;font-size: 40px;&quot;&gt;Inicia sesión&amp;nbsp;&lt;/font&gt;" style="text;html=1;strokeColor=none;fillColor=none;align=center;verticalAlign=middle;whiteSpace=wrap;rounded=0;fontSize=20;" vertex="1" parent="i_mGAdCIbHoOMKgwmb20-1">
          <mxGeometry x="350" y="300" width="410" height="60" as="geometry" />
        </mxCell>
      </root>
    </mxGraphModel>
  </diagram>
</mxfile>
